HIERARCHY
ROOT Hips
{
	OFFSET -0.001795 -0.223333 0.028219
	CHANNELS 6 Xposition Yposition Zposition Zrotation Yrotation Xrotation 
	JOINT LeftUpLeg
	{
		OFFSET 0.069520 -0.091406 -0.006815
		CHANNELS 3 Zrotation Yrotation Xrotation
		JOINT LeftLeg
		{
			OFFSET 0.034277 -0.375199 -0.004496
			CHANNELS 3 Zrotation Yrotation Xrotation
			JOINT LeftFoot
			{
				OFFSET -0.013596 -0.397961 -0.043693
				CHANNELS 3 Zrotation Yrotation Xrotation
				JOINT LeftToe
				{
					OFFSET 0.026358 -0.055791 0.119288
					CHANNELS 3 Zrotation Yrotation Xrotation
					End Site
					{
						OFFSET 0.000000 0.000000 0.000000
					}
				}
			}
		}
	}
	JOINT RightUpLeg
	{
		OFFSET -0.067670 -0.090522 -0.004320
		CHANNELS 3 Zrotation Yrotation Xrotation
		JOINT RightLeg
		{
			OFFSET -0.038290 -0.382569 -0.008850
			CHANNELS 3 Zrotation Yrotation Xrotation
			JOINT RightFoot
			{
				OFFSET 0.015774 -0.398415 -0.042312
				CHANNELS 3 Zrotation Yrotation Xrotation
				JOINT RightToe
				{
					OFFSET -0.025372 -0.048144 0.123348
					CHANNELS 3 Zrotation Yrotation Xrotation
					End Site
					{
						OFFSET 0.000000 0.000000 0.000000
					}
				}
			}
		}
	}
	JOINT Spine
	{
		OFFSET -0.002533 0.108963 -0.026696
		CHANNELS 3 Zrotation Yrotation Xrotation
		JOINT Spine1
		{
			OFFSET 0.005487 0.135180 0.001092
			CHANNELS 3 Zrotation Yrotation Xrotation
			JOINT Spine2
			{
				OFFSET 0.001457 0.052922 0.025425
				CHANNELS 3 Zrotation Yrotation Xrotation
				JOINT Neck
				{
					OFFSET -0.002778 0.213870 -0.042857
					CHANNELS 3 Zrotation Yrotation Xrotation
					JOINT Head
					{
						OFFSET 0.005152 0.064970 0.051349
						CHANNELS 3 Zrotation Yrotation Xrotation
						End Site
						{
							OFFSET 0.000000 0.000000 0.000000
						}
					}
				}
				JOINT LeftShoulder
				{
					OFFSET 0.078845 0.121749 -0.034090
					CHANNELS 3 Zrotation Yrotation Xrotation
					JOINT LeftArm
					{
						OFFSET 0.090977 0.030469 -0.008868
						CHANNELS 3 Zrotation Yrotation Xrotation
						JOINT LeftForeArm
						{
							OFFSET 0.259612 -0.012772 -0.027456
							CHANNELS 3 Zrotation Yrotation Xrotation
							JOINT LeftHand
							{
								OFFSET 0.249234 0.008986 -0.001171
								CHANNELS 3 Zrotation Yrotation Xrotation
								End Site
								{
									OFFSET 0.000000 0.000000 0.000000
								}
							}
						}
					}
				}
				JOINT RightShoulder
				{
					OFFSET -0.081759 0.118833 -0.038615
					CHANNELS 3 Zrotation Yrotation Xrotation
					JOINT RightArm
					{
						OFFSET -0.096012 0.032551 -0.009143
						CHANNELS 3 Zrotation Yrotation Xrotation
						JOINT RightForeArm
						{
							OFFSET -0.253742 -0.013329 -0.021401
							CHANNELS 3 Zrotation Yrotation Xrotation
							JOINT RightHand
							{
								OFFSET -0.255298 0.007772 -0.005559
								CHANNELS 3 Zrotation Yrotation Xrotation
								End Site
								{
									OFFSET 0.000000 0.000000 0.000000
								}
							}
						}
					}
				}
			}
		}
	}
}
MOTION
Frames: 6
Frame Time: 0.050000
0.060949 0.936110 -0.290571 -4.703528 11.491277 -7.937258 3.507702 0.277925 9.960038 -8.770365 0.660259 -0.672237 9.444552 18.044728 0.043664 0.000000 0.000000 0.000000 1.443847 1.442826 -13.895639 -1.131953 0.351153 30.507042 -10.108617 -21.135531 23.002302 0.000000 0.000000 0.000000 4.894772 -0.848639 9.718746 0.699010 -0.602506 3.432682 -7.648606 5.035230 15.527631 14.197853 -4.009150 -27.632787 0.000000 0.000000 0.000000 -0.044168 -23.877018 7.362316 -43.130527 -22.800364 1.670484 171.949337 -72.180812 -170.459240 0.000000 0.000000 0.000000 2.704057 12.322471 5.066335 52.106213 24.927270 5.917960 161.331426 71.347816 169.605816 0.000000 0.000000 0.000000 
0.055460 0.935506 -0.298595 -4.601056 12.931964 -7.910377 3.681601 0.214517 9.798600 -8.714383 0.580201 -1.659588 8.817813 16.767855 -0.095262 0.000000 0.000000 0.000000 1.286051 1.199484 -11.496431 -2.904501 0.908766 30.291501 -6.357737 -15.378430 17.942755 0.000000 0.000000 0.000000 4.910460 -0.755542 8.716120 1.068342 -0.861852 3.888052 -8.495382 5.671751 14.470080 15.047416 -4.762531 -25.446390 0.000000 0.000000 0.000000 -0.562520 -25.315792 7.732280 -41.730848 -22.486503 1.612003 170.859493 -72.821140 -170.314658 0.000000 0.000000 0.000000 3.233364 12.349585 5.295529 51.163227 23.393634 5.151516 164.233879 70.928244 174.344517 0.000000 0.000000 0.000000 
0.048310 0.934627 -0.305286 -4.105786 14.500539 -7.580338 3.145727 0.212609 8.821569 -7.956761 0.512165 -1.539777 8.291746 15.611763 -0.403624 0.000000 0.000000 0.000000 0.879845 0.951173 -9.298458 -4.373998 1.362983 27.263532 -3.848970 -10.560849 12.744047 0.000000 0.000000 0.000000 4.644447 -0.666173 7.911333 0.414338 -0.491942 3.450646 -8.047768 5.275948 14.434421 15.169037 -5.190679 -23.826850 0.000000 0.000000 0.000000 -1.998993 -24.780826 7.549733 -41.092105 -22.579851 1.717790 175.537118 -74.549903 -177.080257 0.000000 0.000000 0.000000 3.986502 12.165361 5.428670 49.749634 21.739570 4.050657 165.440965 71.357487 176.373018 0.000000 0.000000 0.000000 
0.039407 0.933720 -0.310916 -4.056591 14.758315 -7.428880 3.385730 0.170025 8.230945 -7.646095 0.485901 -1.715427 8.235071 15.481876 -0.452885 0.000000 0.000000 0.000000 1.081403 0.766340 -7.078643 -5.009547 1.572083 22.482408 -2.854397 -8.408138 10.819322 0.000000 0.000000 0.000000 4.725139 -0.554416 6.761958 0.243885 -0.459695 3.990939 -8.127811 6.230661 14.736347 14.683272 -5.087713 -22.563768 0.000000 0.000000 0.000000 -3.604951 -24.646981 7.412357 -40.972902 -22.012691 1.634829 177.516319 -76.399958 179.631157 0.000000 0.000000 0.000000 5.693704 11.141738 5.471099 49.323232 20.942450 3.466241 163.035878 73.662349 174.083244 0.000000 0.000000 0.000000 
0.029213 0.932617 -0.315091 -3.932755 15.415947 -7.303846 3.416146 0.138616 7.547622 -6.877921 0.442987 -1.582782 8.075744 15.077257 -0.669978 0.000000 0.000000 0.000000 1.666614 0.628378 -5.294664 -5.273208 1.569506 18.716039 -3.328820 -9.167598 9.271469 0.000000 0.000000 0.000000 4.992867 -0.522924 6.265422 0.057620 -0.386263 4.132811 -8.493264 6.580173 14.702520 14.647531 -5.184417 -21.741596 0.000000 0.000000 0.000000 -4.727502 -23.920331 7.058546 -41.237453 -21.445927 1.553134 -177.834096 -78.413572 173.466332 0.000000 0.000000 0.000000 7.195986 10.022423 5.395969 50.053719 19.897638 2.988405 163.647255 74.841108 175.609487 0.000000 0.000000 0.000000 
0.018964 0.932217 -0.318365 -3.895662 15.418180 -7.125599 3.732831 0.099084 7.120412 -6.455177 0.415237 -1.865801 8.058130 15.125026 -0.422255 0.000000 0.000000 0.000000 1.767219 0.556554 -4.573379 -4.526524 1.323121 16.497248 -3.391185 -9.246188 8.322522 0.000000 0.000000 0.000000 5.263901 -0.457159 5.473974 -0.183353 -0.360736 5.136049 -8.537617 7.061747 14.021997 14.207858 -5.296631 -20.006321 0.000000 0.000000 0.000000 -6.833040 -23.608105 6.810201 -42.428555 -19.812522 1.304958 -177.201867 -80.325068 172.730897 0.000000 0.000000 0.000000 8.758852 9.194223 5.412452 50.753091 18.452016 2.350382 166.043119 76.431926 179.016811 0.000000 0.000000 0.000000 
